{"title":"Charli XCX Ft. Rita Ora - Doing It [Music Video] 720p [Sbyky]","uid":11746227,"size":68022072,"categoryP":"video","categoryS":"music_videos","magnet":"?xt=urn:btih:70d587a5da056adf82a33bbce61ef2fe060ec046&amp;dn=Charli+XCX+Ft.+Rita+Ora+-+Doing+It+%5BMusic+Video%5D+720p+%5BSbyky%5D&amp;tr=udp%3A%2F%2Ftracker.openbittorrent.com%3A80&amp;tr=udp%3A%2F%2Fopen.demonii.com%3A1337&amp;tr=udp%3A%2F%2Ftracker.coppersurfer.tk%3A6969&amp;tr=udp%3A%2F%2Fexodus.desync.com%3A6969","seeders":1,"leechers":0,"uploader":"Sbyky","files":1,"time":1426026617,"description":"General\nComplete name                            : Charli XCX Ft. Rita Ora - Doing It [Music Video] 720p [Sbyky].mp4\nFormat                                   : MPEG-4\nFormat profile                           : Base Media\nCodec ID                                 : isom\nFile size                                : 64.9 MiB\nDuration                                 : 4mn 6s\nOverall bit rate mode                    : Variable\nOverall bit rate                         : 2 203 Kbps\nEncoded date                             : UTC 2015-01-28 14:30:14\nTagged date                              : UTC 2015-01-28 14:30:14\n\nVideo\nID                                       : 1\nFormat                                   : AVC\nFormat/Info                              : Advanced Video Codec\nFormat profile                           : &lt;a class=&quot;__cf_email__&quot; href=&quot;/cdn-cgi/l/email-protection&quot; data-cfemail=&quot;0a476b63644a4639243b&quot;&gt;[email&amp;#160;protected]&lt;/a&gt;&lt;script cf-hash='f9e31' type=&quot;text/javascript&quot;&gt;\n/* &lt;![CDATA[ */!function(){try{var t=&quot;currentScript&quot;in document?document.currentScript:function(){for(var t=document.getElementsByTagName(&quot;script&quot;),e=t.length;e--;)if(t[e].getAttribute(&quot;cf-hash&quot;))return t[e]}();if(t&amp;&amp;t.previousSibling){var e,r,n,i,c=t.previousSibling,a=c.getAttribute(&quot;data-cfemail&quot;);if(a){for(e=&quot;&quot;,r=parseInt(a.substr(0,2),16),n=2;a.length-n;n+=2)i=parseInt(a.substr(n,2),16)^r,e+=String.fromCharCode(i);e=document.createTextNode(e),c.parentNode.replaceChild(e,c)}}}catch(u){}}();/* ]]&gt; */&lt;/script&gt;\nFormat settings, CABAC                   : Yes\nFormat settings, ReFrames                : 3 frames\nCodec ID                                 : avc1\nCodec ID/Info                            : Advanced Video Coding\nDuration                                 : 4mn 6s\nBit rate                                 : 2 074 Kbps\nWidth                                    : 1 280 pixels\nHeight                                   : 720 pixels\nDisplay aspect ratio                     : 16:9\nFrame rate mode                          : Variable\nFrame rate                               : 23.976 fps\nMinimum frame rate                       : 23.974 fps\nMaximum frame rate                       : 23.981 fps\nColor space                              : YUV\nChroma subsampling                       : 4:2:0\nBit depth                                : 8 bits\nScan type                                : Progressive\nBits/(Pixel*Frame)                       : 0.094\nStream size                              : 61.0 MiB (94%)\nEncoded date                             : UTC 2015-01-28 14:30:14\nTagged date                              : UTC 2015-01-28 14:30:14\n\nAudio\nID                                       : 2\nFormat                                   : AAC\nFormat/Info                              : Advanced Audio Codec\nFormat profile                           : LC\nCodec ID                                 : 40\nDuration                                 : 4mn 6s\nBit rate mode                            : Variable\nBit rate                                 : 126 Kbps\nChannel(s)                               : 2 channels\nChannel positions                        : Front: L R\nSampling rate                            : 44.1 KHz\nCompression mode                         : Lossy\nStream size                              : 3.70 MiB (6%)\nEncoded date                             : UTC 2015-01-28 14:26:00\nTagged date                              : UTC 2015-01-28 14:26:00\n\nShared By Sbyky","torrent":{"xt":"urn:btih:70d587a5da056adf82a33bbce61ef2fe060ec046","amp;dn":"Charli+XCX+Ft.+Rita+Ora+-+Doing+It+%5BMusic+Video%5D+720p+%5BSbyky%5D","amp;tr":["udp%3A%2F%2Ftracker.openbittorrent.com%3A80","udp%3A%2F%2Fopen.demonii.com%3A1337","udp%3A%2F%2Ftracker.coppersurfer.tk%3A6969","udp%3A%2F%2Fexodus.desync.com%3A6969"],"infoHash":"70d587a5da056adf82a33bbce61ef2fe060ec046","infoHashBuffer":{"type":"Buffer","data":[112,213,135,165,218,5,106,223,130,163,59,188,230,30,242,254,6,14,192,70]},"announce":[],"urlList":[]}}